<?xml version="1.0" encoding="utf-8"?>
<!-- Generator: Adobe Illustrator 15.0.2, SVG Export Plug-In . SVG Version: 6.00 Build 0)  -->
<!DOCTYPE svg PUBLIC "-//W3C//DTD SVG 1.0//EN" "http://www.w3.org/TR/2001/REC-SVG-20010904/DTD/svg10.dtd">
<svg version="1.0" id="Ebene_1" xmlns="http://www.w3.org/2000/svg" xmlns:xlink="http://www.w3.org/1999/xlink" x="0px" y="0px"
	 width="433px" height="138.6665px" viewBox="0 0 433 138.6665" enable-background="new 0 0 433 138.6665" xml:space="preserve">
<path fill="#181716" d="M120.0522,39.6519h13.6782v6.2432c2.0444-2.5498,4.1143-4.373,6.207-5.4673
	c2.0933-1.0947,4.6436-1.6421,7.6514-1.6421c4.0654,0,7.2476,1.2085,9.5454,3.627c2.2974,2.418,3.4468,6.1523,3.4468,11.2061V77.979
	h-14.7607V56.9028c0-2.4062-0.4453-4.1084-1.3354-5.1074c-0.8901-0.998-2.1416-1.498-3.7534-1.498
	c-1.7808,0-3.2241,0.6748-4.3306,2.0215c-1.1069,1.3477-1.6602,3.7656-1.6602,7.2539V77.979h-14.6885V39.6519z"/>
<path fill="#181716" d="M208.7212,62.4604H179.272c0.2646,2.3584,0.9023,4.1143,1.9126,5.2686
	c1.4199,1.6602,3.272,2.4902,5.5581,2.4902c1.4434,0,2.8149-0.3604,4.1143-1.082c0.7939-0.457,1.6475-1.2637,2.5625-2.418
	l14.4717,1.335c-2.2139,3.8496-4.8848,6.6104-8.0117,8.2822c-3.1279,1.6719-7.6152,2.5078-13.4614,2.5078
	c-5.0767,0-9.0708-0.7148-11.9819-2.1465s-5.3228-3.7051-7.2358-6.8203c-1.9131-3.1162-2.8691-6.7793-2.8691-10.9902
	c0-5.9902,1.9185-10.8379,5.7563-14.5439c3.8374-3.7046,9.1362-5.5576,15.8975-5.5576c5.4854,0,9.8164,0.8296,12.9922,2.4902
	c3.1758,1.6602,5.5938,4.0664,7.2539,7.2178s2.4902,7.2539,2.4902,12.3066V62.4604z M193.7798,55.4224
	c-0.2886-2.8379-1.0522-4.8721-2.2915-6.0996c-1.2393-1.2266-2.8691-1.8398-4.8901-1.8398c-2.3335,0-4.1987,0.9258-5.5938,2.7793
	c-0.8901,1.1543-1.4561,2.875-1.6958,5.1602H193.7798z"/>
<path fill="#181716" d="M206.5195,39.6519h14.2031l6.1445,24.1309l7.7754-24.1309h13.2734l8.1055,24.1924l6.1807-24.1924h14.1143
	L262.1982,77.979H249.127l-7.7627-23.0615l-7.5029,23.0615h-13.1299L206.5195,39.6519z"/>
<path fill="#181716" d="M296.5947,25.0713v14.5806h8.3057v10.7549h-8.3057v13.5781c0,1.6328,0.1562,2.7139,0.4697,3.2422
	c0.4805,0.8164,1.3223,1.2236,2.5264,1.2236c1.082,0,2.5977-0.3115,4.5469-0.9365l1.082,10.1396
	c-3.6328,0.7939-6.1367,1.1904-9.2881,1.1904c-3.6582,0-6.3525-0.4678-8.084-1.4053c-1.7324-0.9365-3.0137-2.3604-3.8438-4.2705
	s-1.2451-5.0039-1.2451-9.2812V50.4067h-4.6641V39.6519h4.6641v-5.9258L296.5947,25.0713z"/>
<path fill="#181716" d="M306.7715,58.9233c0-5.8467,1.9727-10.665,5.9199-14.4541c3.9453-3.7891,9.2744-5.6836,15.9873-5.6836
	c7.6748,0,13.4727,2.2256,17.3945,6.6758c3.1514,3.5859,4.7285,8,4.7285,13.2461c0,5.8945-1.9561,10.7246-5.8652,14.4893
	c-3.9092,3.7656-9.3174,5.6475-16.2217,5.6475c-6.1592,0-11.1396-1.5625-14.9414-4.6914
	C309.1055,70.2798,306.7715,65.2036,306.7715,58.9233z M321.4971,58.8872c0,3.417,0.6914,5.9434,2.0752,7.5791
	c1.3828,1.6357,3.1221,2.4541,5.2148,2.4541c2.1162,0,3.8555-0.8066,5.2148-2.418c1.3584-1.6113,2.0391-4.1982,2.0391-7.7598
	c0-3.3203-0.6855-5.792-2.0576-7.416c-1.3711-1.625-3.0674-2.4355-5.0889-2.4355c-2.1406,0-3.9092,0.8242-5.3047,2.4717
	S321.4971,55.519,321.4971,58.8872z"/>
<path fill="#181716" d="M354.4746,39.6519h13.6777v6.2432c2.0449-2.5498,4.1133-4.373,6.207-5.4673
	c2.0938-1.0947,4.6436-1.6421,7.6514-1.6421c4.0654,0,7.248,1.2085,9.5449,3.627c2.2979,2.418,3.4473,6.1523,3.4473,11.2061V77.979
	h-14.7607V56.9028c0-2.4062-0.4453-4.1084-1.335-5.1074c-0.8906-0.998-2.1426-1.498-3.7539-1.498
	c-1.7812,0-3.2246,0.6748-4.3301,2.0215c-1.1074,1.3477-1.6611,3.7656-1.6611,7.2539V77.979h-14.6875V39.6519z"/>
<path fill="#FF5C27" d="M98.6226,36.0776L58.2144,25.25L28.6343,54.8306l10.8276,40.4082l40.4077,10.8271l29.5801-29.5811
	L98.6226,36.0776z M80.5044,77.1196c-6.3311,6.3301-16.5942,6.332-22.9248,0.002c-6.3311-6.333-6.3306-16.5947,0-22.9263
	c6.3311-6.3306,16.5938-6.3291,22.9238,0.001C86.834,60.5269,86.835,70.7886,80.5044,77.1196z"/>
<g>
	<path fill="#B8B8B9" d="M120.1846,87.314h11.7734c1.6226,0,3.02,0.2246,4.1934,0.6738c1.1729,0.4502,2.1338,1.0898,2.8838,1.9189
		c0.7495,0.8291,1.3052,1.8213,1.667,2.9756c0.3613,1.1553,0.542,2.4473,0.542,3.876s-0.1807,2.7207-0.542,3.876
		c-0.3618,1.1553-0.9131,2.1475-1.6538,2.9766s-1.6626,1.4688-2.7646,1.918c-1.1025,0.4502-2.3945,0.6748-3.876,0.6748h-12.2231
		V87.314z M125.3174,102.606h5.7148c1.7104,0,2.9585-0.499,3.7437-1.4951c0.7842-0.9961,1.1772-2.5088,1.1772-4.5371
		c0-0.8818-0.0972-1.6709-0.291-2.3682c-0.1943-0.6963-0.5073-1.2871-0.9395-1.7725s-0.9878-0.8604-1.6665-1.125
		c-0.6792-0.2646-1.5127-0.3965-2.5005-0.3965h-5.2383V102.606z"/>
	<path fill="#B8B8B9" d="M149.0493,99.6157L140.689,87.314h6.0317l4.8945,8.2275l4.8945-8.2275h6.0322l-8.3604,12.3018v6.5879
		h-5.1323V99.6157z"/>
	<path fill="#B8B8B9" d="M180.6914,87.314h4.9736v18.8896h-5.582l-10.292-13.1758h-0.0527v13.1758h-4.9741V87.314h5.9531
		l9.9214,13.1748h0.0527V87.314z"/>
	<path fill="#B8B8B9" d="M203.894,102.3149h-8.6782l-1.5342,3.8887h-5.5298l8.3076-18.8896h6.1909l8.3076,18.8896h-5.5298
		L203.894,102.3149z M199.5547,91.3882l-2.9629,7.4873h5.9263L199.5547,91.3882z"/>
	<path fill="#B8B8B9" d="M232.2021,87.314h7.54v18.8896h-4.9736V91.0708h-0.0527l-5.9795,15.1328h-4.2856l-5.9795-15.1328h-0.0527
		v15.1328h-4.9741V87.314h7.5405l5.6089,13.5986L232.2021,87.314z"/>
	<path fill="#B8B8B9" d="M244.3984,87.314h5.1328v18.8896h-5.1328V87.314z"/>
	<path fill="#B8B8B9" d="M269.6123,94.4565c-0.124-0.6875-0.3486-1.2832-0.6748-1.7852c-0.3271-0.5029-0.7275-0.9268-1.2041-1.2705
		s-1.0146-0.5996-1.6143-0.7666c-0.5996-0.168-1.2344-0.252-1.9043-0.252c-1.2168,0-2.209,0.2119-2.9766,0.6348
		c-0.7676,0.4238-1.3672,0.9531-1.7988,1.5879c-0.4326,0.6348-0.7275,1.3271-0.8867,2.0771
		c-0.1582,0.749-0.2383,1.4414-0.2383,2.0762s0.0801,1.3281,0.2383,2.0771c0.1592,0.75,0.4541,1.4414,0.8867,2.0771
		c0.4316,0.6348,1.0312,1.1641,1.7988,1.5869c0.7676,0.4238,1.7598,0.6348,2.9766,0.6348c0.6172,0,1.2207-0.0791,1.8125-0.2373
		c0.5908-0.1592,1.1328-0.4062,1.627-0.7412c0.4932-0.335,0.9121-0.7676,1.2568-1.2969c0.3438-0.5283,0.5771-1.1641,0.7012-1.9043
		h5.582c-0.1592,1.376-0.5469,2.5527-1.1641,3.5322c-0.6182,0.9785-1.416,1.7852-2.3945,2.4209
		c-0.9785,0.6348-2.1123,1.0977-3.3994,1.3887c-1.2881,0.291-2.6904,0.4365-4.207,0.4365c-1.7109,0-3.2588-0.1895-4.6426-0.5693
		c-1.3848-0.3789-2.5576-0.9736-3.5195-1.7852c-0.9609-0.8115-1.7021-1.8477-2.2217-3.1094
		c-0.5205-1.2607-0.7812-2.7646-0.7812-4.5107s0.2607-3.249,0.7812-4.5107c0.5195-1.2607,1.2607-2.2969,2.2217-3.1084
		c0.9619-0.8115,2.1348-1.4062,3.5195-1.7861c1.3838-0.3789,2.9316-0.5684,4.6426-0.5684c1.1465,0,2.332,0.0928,3.5586,0.2773
		c1.2256,0.1855,2.3682,0.5557,3.4258,1.1113c1.0586,0.5557,1.9619,1.3359,2.7119,2.3418c0.75,1.0049,1.2217,2.3193,1.416,3.9414
		H269.6123z"/>
	<path fill="#B8B8B9" d="M291.4912,92.7905c-0.0889-0.6172-0.2871-1.1074-0.5957-1.4688s-0.6836-0.6348-1.124-0.8203
		c-0.4414-0.1855-0.9268-0.3037-1.4551-0.3574c-0.5293-0.0527-1.0498-0.0791-1.5615-0.0791c-1.0586,0-1.9043,0.2119-2.54,0.6348
		c-0.6348,0.4238-0.9521,0.9531-0.9521,1.5879c0,0.5117,0.1943,0.9082,0.582,1.1904s0.917,0.4766,1.5879,0.582l6.4287,1.0312
		c0.8643,0.1416,1.667,0.3311,2.4072,0.5693c0.7412,0.2383,1.3799,0.5645,1.918,0.9785c0.5381,0.415,0.9609,0.9268,1.2705,1.5352
		c0.3076,0.6084,0.4629,1.3447,0.4629,2.209s-0.1631,1.6846-0.4893,2.46c-0.3271,0.7764-0.8691,1.4512-1.6279,2.0244
		c-0.7578,0.5732-1.7676,1.0273-3.0293,1.3623c-1.2607,0.335-2.8174,0.5029-4.6689,0.5029c-0.7588,0-1.5479-0.0225-2.3682-0.0664
		s-1.627-0.1455-2.4209-0.3037c-0.7939-0.1592-1.543-0.3799-2.249-0.6621c-0.7051-0.2812-1.3223-0.665-1.8516-1.1504
		s-0.9521-1.0762-1.2695-1.7725c-0.3184-0.6973-0.4766-1.5391-0.4766-2.5273h5.7676c0.0176,0.6533,0.1758,1.1777,0.4766,1.5742
		c0.2988,0.3975,0.6826,0.7061,1.1504,0.9268c0.4668,0.2207,0.9873,0.3662,1.5605,0.4365s1.1338,0.1055,1.6807,0.1055
		c1.2168,0,2.1953-0.1807,2.9365-0.542s1.1113-0.9658,1.1113-1.8125c0-0.7236-0.2783-1.2256-0.834-1.5078
		c-0.5547-0.2822-1.3447-0.5029-2.3672-0.6621l-4.6836-0.7139c-0.8105-0.123-1.6045-0.291-2.3809-0.5029
		s-1.4678-0.5156-2.0762-0.9131c-0.6094-0.3965-1.0947-0.9082-1.4561-1.5342s-0.542-1.4238-0.542-2.3945
		c0-1.0576,0.2119-1.9619,0.6348-2.7119c0.4238-0.749,1.0322-1.3623,1.8262-1.8389c0.793-0.4756,1.7725-0.8242,2.9365-1.0449
		c1.1641-0.2197,2.4863-0.3301,3.9688-0.3301c0.6523,0,1.3447,0.0225,2.0762,0.0654c0.7324,0.0449,1.4551,0.1416,2.1699,0.291
		c0.7139,0.1504,1.4062,0.3623,2.0762,0.6357c0.6709,0.2734,1.2705,0.6309,1.7998,1.0713c0.5293,0.4414,0.9609,0.9834,1.2959,1.627
		c0.335,0.6445,0.5293,1.415,0.582,2.3154H291.4912z"/>
</g>
</svg>
